<svg width="113" height="54" viewBox="0 0 113 54" fill="none" xmlns="http://www.w3.org/2000/svg">
<path d="M73.8319 7.09241C73.6701 6.77963 73.6071 6.67579 73.5363 6.33313C73.6256 6.11242 73.5631 6.1794 73.7652 6.07506C75.1349 7.16911 75.8914 3.436 76.9597 3.10795C77.2281 3.02552 77.3196 3.12845 77.5491 3.24043C77.2447 3.53353 77.088 3.60525 77.0724 3.98376C77.1964 4.20838 77.2333 4.27471 77.4044 4.4765C76.8124 5.22033 76.5874 6.55809 76.0934 7.52986C75.0196 9.64249 73.1207 11.4605 72.511 13.7447C72.4456 13.9897 72.435 15.7629 72.5496 15.9182C72.7979 15.8877 72.947 15.7348 73.0365 15.4858C73.37 14.5583 73.7288 13.3243 74.0549 12.4152C74.5084 11.1513 76.9326 7.31935 77.935 6.6254L78.0116 6.67048C77.5698 8.30391 74.8966 11.0651 74.3152 12.914C73.9411 14.1038 73.3806 15.2484 73.2661 16.5388C73.2324 16.918 73.198 17.3977 73.2755 17.7874C74.1106 19.9331 74.281 22.6511 75.3709 24.6338C75.7818 25.3813 76.9737 26.2113 77.5465 26.9376C77.4299 27.2163 77.1835 27.6389 77.0358 27.9475L77.44 28.9784C76.506 30.5417 75.4696 30.0341 74.0501 29.6034C73.5068 29.4384 72.7708 29.3994 72.1992 29.2367C72.0093 29.183 71.8301 29.0969 71.6696 28.9823C70.6585 28.2599 67.9946 24.5362 66.9785 23.3482C65.1901 21.2569 63.3659 19.5618 61.2933 17.726C59.3951 16.0446 57.9663 16.071 55.8242 15.056C53.1376 13.783 53.3635 13.773 52.4766 11.2597C54.2813 7.67338 54.6003 9.19583 57.2997 9.2746C62.5126 9.42667 62.4466 12.0909 64.6646 15.7471C64.9727 16.2551 69.3364 21.306 69.7077 21.369C69.7289 21.0896 69.3964 20.1354 69.3275 19.6853C69.1507 18.5292 69.3405 16.9744 69.1396 15.8992C69.5599 14.9374 69.7758 15.2745 69.6552 14.3148C69.6455 14.2376 70.9776 12.5837 70.6245 12.0135C70.2801 11.4574 70.4729 10.6466 70.9612 10.3161C71.1425 10.3456 71.43 10.4224 71.5593 10.2649C72.3687 9.2795 73.1406 8.16088 73.8319 7.09241ZM72.5206 10.471C72.394 10.8617 72.04 11.0511 72.0215 11.4401L72.1086 11.5871C72.664 11.5871 72.7135 10.9627 72.8149 10.5177C73.159 10.256 73.9126 9.32042 73.8447 8.84636L73.7156 8.76526C73.1946 8.94406 72.6949 9.97162 72.5206 10.471ZM75.493 6.71439C75.8092 6.32624 76.7186 5.26125 76.2381 4.84738C75.9263 5.23511 75.2739 6.10129 75.3205 6.58456L75.493 6.71439Z" fill="black" fill-opacity="0.984314"/>
<path d="M72.5187 10.4688L72.8129 10.5155C72.7115 10.9605 72.662 11.5849 72.1067 11.5849L72.0195 11.4379C72.038 11.0489 72.392 10.8595 72.5187 10.4688Z" fill="black" fill-opacity="0.0313725"/>
<path d="M38.8434 34.3158C38.3895 32.8739 37.45 31.7523 36.8031 30.3335C35.1627 26.736 33.4745 22.7384 32.8791 18.8176C32.7532 17.9885 33.3534 14.7651 34.7315 15.7585C37.8145 17.7274 40.1861 22.7955 40.5498 26.298C40.7443 28.1708 40.745 32.5866 40.0879 34.2192C40.5535 35.1689 40.8781 35.8452 41.938 36.286L42.0055 36.235C43.7334 34.9168 44.9847 32.9257 47.5939 33.2974C48.4567 33.4203 49.7424 33.8289 50.308 34.5197C50.5809 34.8532 50.8876 35.5143 51.2639 35.674C52.4318 35.491 52.5862 32.6669 52.865 32.402C53.3765 32.698 53.6588 37.3124 51.2534 37.568C48.0143 37.9121 48.5065 35.4428 45.4659 34.6881C45.1074 34.8573 44.6609 35.058 44.345 35.2895C43.2337 36.1036 43.0975 36.9882 41.7892 37.4594L40.8852 37.2699C40.2126 36.6569 40.0648 36.3853 39.8039 35.5008C39.5693 36.0769 39.4228 36.3906 39.1191 36.9332C39.4048 37.241 40.0452 37.2174 40.0001 37.7739C39.9536 38.3486 39.052 39.1722 38.6286 39.5176C38.4862 39.1405 38.3713 39.2844 38.2544 38.9289L38.4589 38.6274C38.3189 38.2167 38.597 38.1489 38.4695 37.7433L38.3138 37.6765C37.984 37.7297 37.0552 38.2372 36.9699 38.5635L37.1346 38.6305L37.3096 38.5523L37.4645 38.6959C37.1843 38.9789 36.7091 39.1758 36.3355 39.3156C35.2005 39.7403 32.2617 41.222 31.4544 39.7331C31.2931 39.6154 31.3444 39.6587 31.277 39.4232C30.3797 37.1792 31.8829 35.2578 33.0515 33.4818C33.4063 32.9426 33.6275 31.3966 34.64 31.9736C35.7135 32.5854 37.5807 34.2678 37.0305 35.671C36.8887 36.0325 36.2187 36.0882 35.8463 36.3125C34.8532 35.7482 34.9742 35.7323 34.3805 34.7674C32.3549 35.8582 30.3935 39.7391 34.2734 38.8486C35.5719 38.5505 37.1648 37.6076 38.5457 37.2137C38.3475 37.0295 38.073 36.7895 37.8916 36.6004C38.3526 35.7401 38.514 35.2244 38.8434 34.3158ZM33.4498 18.9514C34.3227 23.0386 35.5278 26.9509 37.7199 30.5427C38.0415 31.0698 38.5209 32.2299 39.0657 32.4883C39.9515 30.5676 39.4763 26.9802 38.7774 25.0444C38.0368 22.9929 36.0193 18.5083 34.1459 17.4557C33.8232 17.8897 33.596 18.4324 33.4498 18.9514Z" fill="black" fill-opacity="0.984314"/>
<path d="M4.15285 41.0154C3.9656 39.3329 3.55643 39.0196 2.91512 37.4905L1.36861 33.7787C1.17264 33.317 0.658602 32.1492 0.584193 31.6987C0.784077 31.276 0.810502 31.6153 1.10465 31.2833C0.903243 30.994 0.802493 31.3876 0.322102 31.1785C-0.127423 30.7403 -0.192206 29.2683 0.689119 29.1659C1.88357 29.0271 2.76607 29.7416 3.66585 30.3772C4.73293 30.3528 8.26143 30.1628 8.96735 30.9871C9.06143 31.6966 9.21902 31.5515 9.39418 32.1044C10.0687 34.2337 8.95235 36.3821 8.13327 38.1776C8.42293 38.5152 8.60777 38.982 8.82343 39.3778C9.5326 40.6795 9.82602 41.5406 10.8405 42.6319C10.5739 42.9268 10.5904 42.762 10.1504 42.9051C10.2144 43.0014 10.2294 43.0465 10.3304 43.1008C11.0752 43.7028 14.0013 45.8907 14.8299 46.2927L14.8207 46.5042C13.5291 46.0865 10.3499 43.1768 9.57835 43.3402C9.39643 43.8145 11.4178 44.7515 11.5581 45.2285C11.3208 45.3631 11.3006 45.4551 11.1251 45.5502C10.6444 45.494 9.84794 44.9767 9.41335 44.7144L9.38652 44.5901C9.83427 44.5947 10.3693 45.0177 10.8303 45.042C10.6083 44.571 8.99343 43.6875 8.50685 43.2809C8.0736 42.9189 8.14835 42.9068 7.7956 42.5283L7.64618 42.5405L7.58427 42.8514C7.40627 43.0274 7.38268 42.9728 7.07352 42.9946L6.97819 43.1243C6.96769 43.6419 7.83477 44.9709 8.13444 45.4842C7.78302 45.2924 7.52177 45.1306 7.18735 44.9102L7.12027 44.7823C6.83052 44.774 6.84568 44.842 6.55243 45.0565C6.37543 44.8091 6.28485 44.4379 6.1936 44.1401C5.85602 43.9271 5.92244 44.2668 5.70985 44.1866C4.85269 43.8633 4.03602 43.1404 3.52619 42.4875C3.69302 42.037 3.95818 41.4663 4.15285 41.0154ZM6.47185 36.5589C6.77702 36.8039 6.71002 36.8262 7.04418 36.8627C7.73343 36.5019 7.7636 34.9655 7.93477 34.2413C7.68085 33.7171 7.63768 33.5415 7.50318 32.9782C7.23693 32.8101 6.70935 32.4299 6.41202 32.4715C5.92177 32.6405 5.32427 32.6944 4.8056 32.703C5.09243 33.7422 5.61735 35.2744 5.28227 36.2647L5.3436 36.4033C5.79943 36.5128 6.14977 36.4069 6.47185 36.5589ZM7.33177 42.5528C7.25993 42.1314 7.04844 41.7779 6.6391 41.6002C6.6061 41.8736 6.54243 42.1206 6.66843 42.3589C6.86177 42.5449 7.0651 42.5317 7.33177 42.5528Z" fill="black"/>
<path d="M97.188 6.37772C98.5463 6.23901 98.8972 7.51219 99.4097 7.75108C100.318 7.2957 100.418 8.19742 101.217 8.78702C101.405 10.3228 101.69 11.9829 103.288 12.6677C103.654 12.8248 105.029 13.4275 105.065 13.8212L104.927 13.9102C103.986 13.7347 101.948 14.3836 100.645 13.4644C99.6188 12.7398 99.6755 11.9067 99.4522 10.8039C98.8055 13.0935 99.3838 14.3763 97.868 16.7123C97.7155 16.9631 97.4672 17.345 97.2188 17.4925C96.6263 17.8434 95.5555 18.2921 94.8805 18.1468C94.6255 17.963 94.6888 18.0587 94.6055 17.7952C94.9288 17.1837 94.5705 17.1188 94.8288 16.677C95.0613 16.7655 95.0363 17.1414 95.3047 17.5196L95.4755 17.5251L95.6163 17.3704C95.5963 17.0334 95.4413 16.5972 95.378 16.2446C95.3038 15.8353 95.3447 14.9103 95.1113 14.6084C94.7255 14.926 94.3813 17.2327 94.0897 17.484C93.9388 17.2448 93.908 16.5563 93.933 16.2592C93.938 16.1999 94.253 15.9852 94.3338 15.9241C94.4263 15.662 94.4322 15.7636 94.3347 15.5371L93.9588 15.4169C93.7697 15.0078 94.368 14.6392 94.3747 14.2167L94.1138 14.0342C94.0122 13.708 94.4272 13.7557 94.4947 13.3743C94.7205 12.0831 95.3422 10.7326 95.6038 9.48528C95.663 9.20289 95.4913 7.63205 95.4555 7.3167C95.9172 6.98168 96.6405 6.45458 97.188 6.37772ZM99.0005 11.1153C98.468 11.524 98.318 11.8506 97.8705 12.3027C97.6097 12.5659 97.4563 12.2456 97.0563 12.5703L97.0622 12.6978L97.5213 12.9247L97.558 13.0575C96.2122 13.1939 97.1155 13.4721 96.3288 14.0332C96.0405 14.1364 95.7663 14.1953 95.5922 14.4383C95.5355 14.8255 95.6347 14.9484 95.8638 15.2865C95.718 15.4419 95.6972 15.5878 95.7122 15.7881C95.9122 16.1548 96.1413 16.6771 96.5038 16.8452C97.8463 16.5478 98.713 12.2968 99.0005 11.1153Z" fill="black" fill-opacity="0.984314"/>
<path d="M96.3265 14.0391C96.2923 14.5704 96.3007 14.9356 95.8615 15.2924C95.6323 14.9542 95.5332 14.8314 95.5898 14.4441C95.764 14.2012 96.0382 14.1422 96.3265 14.0391Z" fill="black" fill-opacity="0.0156863"/>
<path d="M80.043 11.9525C81.193 11.4244 82.928 11.2048 84.1771 11.2685C84.4805 11.5378 84.4313 11.5863 84.7555 11.6068C84.9138 11.5081 85.0713 11.4076 85.2271 11.3056L85.3488 11.3704C85.6655 12.8166 85.1521 13.256 85.7113 15.0743C86.0013 15.3346 86.408 15.7691 86.778 15.8319C87.4263 15.5535 86.7446 14.11 86.5913 13.5858C87.2263 12.891 89.233 11.5875 90.1421 12.199C90.3038 12.5134 90.1346 12.7494 90.1171 13.0808C90.0638 14.0703 90.6105 16.0779 91.0796 16.9184L90.8055 17.2467C90.5088 16.7622 90.2546 15.6194 89.7863 15.4973C89.6405 15.6813 89.6863 15.6205 89.6888 15.9163L89.6255 16.1323L89.4246 16.0386C89.2738 16.1558 89.2763 16.2073 89.2155 16.399C89.023 16.0337 88.7838 15.4908 88.4763 15.2438L88.3196 15.2494C87.9855 15.7475 88.1596 16.7856 87.6013 17.5134C85.2638 20.5583 82.9971 16.9928 81.7888 15.0067C81.6663 14.8043 81.5388 14.5435 81.3488 14.3967C80.9671 14.4972 81.1188 14.9071 80.7163 15.0042C80.3246 14.6946 80.2455 14.2106 80.1896 13.7378C80.1221 13.1444 80.073 12.549 80.043 11.9525Z" fill="black"/>
<path d="M89.6861 15.9219C89.9686 16.5388 90.2402 17.1604 90.5011 17.7865L90.4652 17.7411L90.6969 17.6437C90.7061 17.6077 90.8027 17.2591 90.8027 17.2522L91.0769 16.924L91.1936 16.8942L91.4852 16.964C91.0794 17.8555 91.3761 17.4486 91.6577 18.2139C92.8319 21.4025 95.0419 25.2143 94.0027 28.7245C93.2436 31.2883 92.2194 35.1563 89.046 32.2271C88.8727 31.3151 88.9344 30.6806 88.8969 29.7711C88.8652 29.0019 87.8144 26.9192 88.3836 26.2265C88.6494 26.7036 88.5069 27.8078 88.9436 28.1633C89.1711 28.1468 89.0902 28.1864 89.2452 28.0109C89.2719 27.54 89.1436 27.3559 89.1252 26.9766C89.1002 26.4539 89.1877 25.5211 89.2886 25.0078C89.3677 25.402 89.4261 26.0574 89.4927 26.3443C89.5519 27.3148 90.1494 29.3632 91.1494 29.711C91.7327 29.7309 92.0361 29.0372 92.1594 28.5495C92.6386 26.6597 92.1494 24.1934 91.7602 22.3407C91.3177 20.2337 90.2427 18.2627 89.2127 16.4046C89.2735 16.2129 89.271 16.1614 89.4219 16.0441L89.6227 16.1379L89.6861 15.9219ZM92.9902 22.7997C93.1436 22.1168 91.741 19.323 91.5369 18.5287C91.466 18.2562 91.2836 17.9867 91.0119 17.8673L90.9786 17.8523C90.9486 17.9918 90.8769 18.326 90.9227 18.4425C91.4519 19.8062 92.1869 21.3426 92.7202 22.6916L92.9902 22.7997ZM92.9319 30.3205C93.3402 29.7406 93.8286 28.9411 93.7711 28.2099C93.5944 28.0116 93.6836 28.0743 93.3969 27.9936C93.2277 28.4165 92.9927 29.554 92.7327 30.2535L92.8144 30.3448L92.9319 30.3205ZM93.7894 27.7549C93.9886 27.3772 94.1044 26.9934 93.7219 26.6989L93.3602 26.6862C93.2627 27.0849 93.4569 27.5103 93.7894 27.7549Z" fill="black" fill-opacity="0.976471"/>
<path d="M93.3985 27.9922C93.6852 28.0729 93.596 28.0102 93.7727 28.2084C93.8302 28.9397 93.3419 29.7392 92.9335 30.3191L92.816 30.3434L92.7344 30.2521C92.9944 29.5526 93.2294 28.4151 93.3985 27.9922Z" fill="black" fill-opacity="0.01"/>
<path d="M27.0183 37.2422C28.7318 37.4274 28.0053 37.7447 28.1484 39.0587C28.2212 39.7269 28.9467 41.5802 29.7087 41.7045C30.1436 41.5335 30.4708 40.7279 30.6812 40.3074L30.9166 40.6178C30.8836 41.1412 30.4478 42.0224 29.9714 42.3C29.1745 42.7644 28.5423 42.5999 27.7085 42.4181C27.8122 44.5245 28.1872 45.2202 26.1882 46.2538C22.1516 45.0653 22.1659 41.4653 19.3477 40.164C20.0553 39.6832 20.0798 39.6157 20.5512 38.8627C21.4889 38.6932 22.1267 38.8154 23.0116 39.0862C24.2152 40.3188 24.4189 42.8089 26.1477 43.6604C26.2706 43.7339 26.6383 43.7054 26.7407 43.6062C27.6272 42.7474 26.0313 40.1922 25.6109 39.5636C25.9318 39.2223 26.6607 37.7897 27.0183 37.2422Z" fill="black" fill-opacity="0.988235"/>
<path d="M109.855 11.0945C109.473 11.4469 108.593 11.8801 108.091 12.0113C107.924 11.9354 107.903 11.9162 107.724 11.9107C107.596 12.0532 107.555 12.1268 107.454 12.2905C106.837 12.5612 105.674 12.9102 105.11 12.7456C102.595 12.0109 103.993 8.04491 105.14 6.64914C105.228 6.48835 105.715 5.96308 105.76 5.83026C106.487 3.62707 106.995 3.92316 108.585 5.33944C109.12 5.81673 109.996 6.98797 109.798 7.83083C109.709 8.21051 108.829 8.5442 108.483 8.70624C107.721 8.18279 107.352 7.55185 106.895 7.27037C105.802 7.25659 104.802 9.52851 104.657 10.4745C104.797 10.7245 104.953 11.0509 105.216 11.1765C106.463 11.7725 108.656 10.4406 109.995 10.0411L110.202 10.1282C110.237 10.4969 110.07 10.7885 109.78 11.01L109.855 11.0945Z" fill="black" fill-opacity="0.984314"/>
<path d="M55.7337 27.25C56.1249 27.3746 56.2811 27.5279 56.3152 27.9449C56.4934 30.121 56.9903 32.3522 57.8397 34.3661C57.9231 34.5637 57.8872 34.6543 57.8 34.8188C57.1267 33.8602 56.8177 34.0083 55.9832 33.3719C55.7735 33.212 55.1821 32.2605 55.0029 31.9811C54.4487 31.0839 53.7697 30.1271 53.1866 29.2118C53.1036 29.9085 53.0793 30.684 52.6124 31.2196L52.5045 31.2061C52.3751 30.8359 52.6017 28.5771 52.6277 28.0167C53.1277 27.0153 54.3946 27.5991 55.1981 27.6922C55.3954 27.715 55.6118 27.389 55.7337 27.25Z" fill="black" fill-opacity="0.988235"/>
<path d="M53.0662 22.0717C53.9043 22.0394 53.8743 22.5594 54.0225 23.2427C54.115 23.2793 54.2071 23.3169 54.2988 23.3556C55.5598 23.8895 54.6953 24.4649 54.3486 25.2776C54.1195 25.8146 54.3675 25.666 54.5278 26.1344L54.4316 26.2268C54.1615 26.2616 54.068 26.209 53.8199 26.116C52.6907 25.8703 50.866 24.7162 51.3437 23.316C51.566 22.6646 52.477 22.3235 53.0662 22.0717Z" fill="black" fill-opacity="0.984314"/>
<path d="M25.1251 50.4812L25.416 50.1797L25.5133 50.1995L25.6388 50.5832C25.9493 50.7193 26.709 50.3382 27.3636 50.6001C27.8484 50.7941 29.5173 50.7749 29.8352 51.3132C29.8727 51.713 29.8416 52.0482 29.6044 52.3863C29.241 52.5514 29.2193 52.3575 28.8821 52.4098C28.6392 52.4475 28.4807 52.8231 28.1453 52.8472C28.104 52.6752 28.1072 52.6679 28.1403 52.4915C27.6245 52.1357 26.592 52.9265 25.8628 52.5551C25.8133 52.1348 26.1916 52.1727 25.9853 51.9519C25.2956 51.928 25.3369 52.2771 25.0278 52.2364L25 52.1163C25.3878 51.7337 25.8542 51.5586 26.2145 51.1128L26.1554 51.0544C25.895 51.1125 25.7279 51.1848 25.4968 51.0738C25.3745 50.8936 25.3055 50.7498 25.1165 50.6487L25.1251 50.4812Z" fill="black" fill-opacity="0.984314"/>
<path d="M109.996 10.0425C110.654 9.67062 111.982 9.18892 112.509 9.95218C112.715 11.2454 108.425 14.2678 107.445 14.9832L107.479 14.598C108.008 14.1079 110.165 11.965 110.384 11.4572C110.242 11.2229 110.149 11.2397 109.856 11.0959L109.782 11.0114C110.072 10.7899 110.239 10.4983 110.204 10.1297L109.996 10.0425ZM111.09 11.1964L111.194 10.9916C111.078 10.6444 111.135 10.5369 111.255 10.1559C111.214 10.0727 111.181 9.98605 111.121 9.91923C110.644 10.2629 110.469 10.5052 110.788 11.0483C110.881 11.0959 110.994 11.1585 111.09 11.1964Z" fill="black" fill-opacity="0.968627"/>
<path d="M6.55078 45.0561C6.84403 44.8416 6.82886 44.7735 7.11861 44.7819L7.1857 44.9098C7.18478 44.964 9.36428 49.3594 9.66003 50.3608C9.50811 50.3941 9.36386 50.4164 9.2257 50.4881L9.19611 50.4854C8.79636 50.0751 8.47553 50.15 8.29753 49.8351C8.7152 49.2885 8.15128 49.3571 8.03761 48.9625C7.6372 47.5721 7.17003 46.3697 6.55078 45.0561Z" fill="black" fill-opacity="0.980392"/>
<path d="M13.0444 46.6202C13.3257 46.5957 13.0905 46.4653 13.4515 46.4609C14.0787 47.0912 16.7952 48.1607 17.7162 48.625C18.2122 48.875 18.703 49.1666 19.1877 49.4482L19.2384 49.4388C19.953 49.3118 20.5243 49.9132 21.2069 50.0735C21.9186 50.2407 22.569 50.3008 23.2611 50.5706C22.1747 50.6767 22.0248 50.4854 21.0119 50.287C20.7749 50.2406 20.4824 50.8049 20.0718 50.4867C20.2218 50.3922 20.3743 50.3015 20.5292 50.2149L20.5169 50.1035C20.2622 49.969 19.6068 49.6212 19.3336 49.6286L19.1702 49.8284C18.3632 49.7157 18.2341 48.5688 17.4159 49.2735L17.2927 49.2473C17.1925 48.9297 17.5146 48.9693 17.3777 48.6753C16.9697 48.5782 16.9373 48.6353 16.6293 48.912L16.4242 48.8506C16.4819 48.4621 16.7084 48.6478 16.6181 48.3215C16.1743 48.1919 16.118 48.2495 15.7593 48.5223C15.6463 48.3845 15.8622 47.8953 15.3087 47.9326C14.5695 47.9822 13.8853 47.2436 13.2017 46.9778C12.95 46.88 12.7047 46.8117 12.5 46.6326L13.0444 46.6202Z" fill="black" fill-opacity="0.980392"/>
<path d="M9.66112 50.3672L9.69412 50.4331C10.087 51.1991 11.1264 51.9989 11.0013 52.8469L10.8648 53.0755C10.5025 53.0063 10.3971 52.9589 10.053 53.0997C9.6717 53.0448 9.31454 52.6892 9.05912 52.4137C9.0862 52.0404 9.13454 51.8079 8.99704 51.4573C8.8952 51.1976 8.75304 50.9403 8.83895 50.7168L9.1972 50.4918L9.22679 50.4945C9.36495 50.4228 9.5092 50.4005 9.66112 50.3672Z" fill="black" fill-opacity="0.968627"/>
<path d="M77.547 3.23797C78.4704 3.16774 79.5746 0.158628 80.1837 0C80.4471 0.74624 78.0062 3.85605 77.4023 4.47404C77.2312 4.27225 77.1943 4.20592 77.0703 3.9813C77.0859 3.60279 77.2426 3.53107 77.547 3.23797Z" fill="black" fill-opacity="0.960784"/>
<path d="M37.3076 38.5491C37.4811 38.363 37.5561 38.2446 37.798 38.1719C38.1389 38.4952 37.8771 38.7986 38.2524 38.9257C38.3693 39.2811 38.4842 39.1373 38.6266 39.5143C38.088 40.0317 37.6603 40.3986 37.0789 40.8702C36.9599 40.6142 36.8875 40.5683 36.6797 40.3912C37.2055 39.7392 37.9047 39.5379 37.4625 38.6926L37.3076 38.5491Z" fill="black" fill-opacity="0.976471"/>
<path d="M36.6803 40.3906C36.8881 40.5678 36.9605 40.6137 37.0795 40.8697C36.4519 41.3775 34.4226 43.0855 33.7617 43.1627C34.6614 42.6386 35.9452 40.905 36.6803 40.3906Z" fill="black" fill-opacity="0.929412"/>
<path d="M10.8386 42.6328C12.0246 43.6014 13.1975 44.5436 14.4888 45.3798C14.6839 45.5062 15.171 45.7512 15.2448 45.9281C14.6886 46.1332 11.3014 43.0334 10.4878 43.0083L10.3284 43.1016C10.2275 43.0474 10.2125 43.0023 10.1484 42.906C10.5884 42.7629 10.5719 42.9277 10.8386 42.6328Z" fill="black" fill-opacity="0.843137"/>
<path d="M91.1953 16.8885C91.692 15.5175 92.6553 13.8287 93.3895 12.5208L93.5003 12.5078L93.5686 12.6489C93.1695 13.7235 91.7945 15.7676 91.487 16.9583L91.1953 16.8885Z" fill="black" fill-opacity="0.94902"/>
<path d="M37.3085 38.5477L37.1335 38.6259L36.9688 38.5589C37.0541 38.2326 37.9828 37.7251 38.3127 37.6719L38.4683 37.7387C38.5958 38.1443 38.3178 38.2121 38.4578 38.6227L38.2532 38.9243C37.878 38.7972 38.1398 38.4938 37.7989 38.1705C37.557 38.2432 37.482 38.3617 37.3085 38.5477Z" fill="black" fill-opacity="0.0235294"/>
<path d="M12.0328 46.3061C11.8475 46.2183 11.6926 46.1604 11.5391 46.0248L11.5426 45.8909L11.8844 45.712L11.7818 45.3359C12.0596 45.3413 13.3144 46.2333 13.4536 46.4579C13.0926 46.4623 13.3278 46.5926 13.0465 46.6172L13.0031 46.4317C12.7166 46.1456 12.537 45.8503 12.1145 45.9729L12.0328 46.3061Z" fill="black" fill-opacity="0.878431"/>
<path d="M25.1168 50.6466C24.878 50.6964 24.4359 50.5879 23.9394 50.6934C23.4433 50.7989 22.8588 51.1503 22.5273 51.1756C22.7095 50.7195 23.7677 50.4256 24.2211 50.3217C24.6584 50.2213 24.7505 50.2454 25.1254 50.4791L25.1168 50.6466Z" fill="black" fill-opacity="0.956863"/>
<path d="M90.1939 19.0547L90.3622 19.1985C90.3214 19.7615 90.0864 20.3282 89.9864 20.8719C89.9322 21.1693 90.0122 21.1721 89.9005 21.5939C89.7422 21.5375 89.7864 21.5477 89.6622 21.4008C89.5472 20.836 89.9164 19.5303 90.1939 19.0547Z" fill="black"/>
<path d="M89.288 25.0033C89.2364 24.5811 89.2355 23.4095 89.5247 23.0938L89.6155 23.1579C89.6605 23.4608 89.5572 26.0892 89.4922 26.3398C89.4255 26.0528 89.3672 25.3975 89.288 25.0033Z" fill="black"/>
<path d="M72.3038 8.00781C72.3681 8.06467 72.3951 8.12776 72.4404 8.20363C72.4122 8.31619 72.3793 8.42767 72.342 8.53765C72.1891 8.97875 71.9204 9.44559 71.488 9.65577C71.3782 9.49374 71.4096 9.55798 71.4023 9.34142C71.6541 8.93559 71.9889 8.32416 72.3038 8.00781Z" fill="black" fill-opacity="0.972549"/>
<path d="M23.9117 51.0364C24.26 50.9582 24.9599 51.0435 25.2715 51.2542L25.1418 51.4656L24.8282 51.4632C24.2091 51.2318 24.1477 51.3381 23.5039 51.4166L23.5268 51.2943L23.9117 51.0364Z" fill="black" fill-opacity="0.956863"/>
<path d="M12.0312 46.3069L12.1129 45.9738C12.5354 45.8512 12.7151 46.1465 13.0016 46.4326L13.0449 46.618L12.5005 46.6304C12.4057 46.5992 12.1297 46.3798 12.0312 46.3069Z" fill="black" fill-opacity="0.0196078"/>
<path d="M14.8296 46.2969C15.5499 46.5572 15.4712 46.8415 16.1735 46.3899L16.2621 46.4445C15.963 47.1375 15.2798 46.8608 14.8203 46.5084L14.8296 46.2969Z" fill="black" fill-opacity="0.894118"/>
<path d="M31.275 39.4219C31.3424 39.6575 31.2912 39.6141 31.4524 39.7318C31.1108 39.9939 31.0414 40.2034 30.9151 40.6212L30.6797 40.3108C30.8715 39.87 30.9523 39.7869 31.275 39.4219Z" fill="black" fill-opacity="0.968627"/>
<path d="M107.48 14.5938L107.447 14.979C107.282 15.185 106.729 15.5242 106.477 15.6278C106.614 15.3139 107.195 14.8419 107.48 14.5938Z" fill="black" fill-opacity="0.843137"/>
<path d="M23.3812 49.7266C23.4474 49.7187 23.5137 49.7118 23.5801 49.7058C23.8082 49.6861 23.9359 49.6802 24.0988 49.8178C23.8611 49.9847 23.7891 49.932 23.4473 49.9525C23.1922 50.155 23.2082 50.2132 22.9414 50.2276C23.036 49.9443 23.1142 49.953 23.3812 49.7266Z" fill="black" fill-opacity="0.917647"/>
</svg>
